PathFileType	4	(X/Y/Z)	/Users/itak/Documents/Research/Walk-IL/dataset/trc/00495_00183.trc
DataRate	CameraRate	NumFrames	NumMarkers	Units	OrigDataRate	OrigDataStartFrame	OrigNumFrames
100.000000	100.000000	4	53	mm	100.000000	356	713
Frame#	Time	RPSI			LPSI			L3			STRN			T10			C7			CLAV			RBAK			LBAK			LSHO			LUPA			LAEL			LAOL			LWTS			LWPS			LFRA			LIFD			LHPS			LHTS			RSHO			RUPA			RAEL			RAOL			RWTS			RWPS			RFRA			RIFD			RHTS			RHPS			RBHD			LFHD			RFHD			LBHD			LHIP			RHIP			RASI			LASI			LKNE			LTHI			LANK			LTIP			LTOE			LMT1			LMT5			LHEE			RKNE			RANK			RTIP			RTOE			RMT1			RMT5			RHEE			RTHI			
		X1	Y1	Z1	X2	Y2	Z2	X3	Y3	Z3	X4	Y4	Z4	X5	Y5	Z5	X6	Y6	Z6	X7	Y7	Z7	X8	Y8	Z8	X9	Y9	Z9	X10	Y10	Z10	X11	Y11	Z11	X12	Y12	Z12	X13	Y13	Z13	X14	Y14	Z14	X15	Y15	Z15	X16	Y16	Z16	X17	Y17	Z17	X18	Y18	Z18	X19	Y19	Z19	X20	Y20	Z20	X21	Y21	Z21	X22	Y22	Z22	X23	Y23	Z23	X24	Y24	Z24	X25	Y25	Z25	X26	Y26	Z26	X27	Y27	Z27	X28	Y28	Z28	X29	Y29	Z29	X30	Y30	Z30	X31	Y31	Z31	X32	Y32	Z32	X33	Y33	Z33	X34	Y34	Z34	X35	Y35	Z35	X36	Y36	Z36	X37	Y37	Z37	X38	Y38	Z38	X39	Y39	Z39	X40	Y40	Z40	X41	Y41	Z41	X42	Y42	Z42	X43	Y43	Z43	X44	Y44	Z44	X45	Y45	Z45	X46	Y46	Z46	X47	Y47	Z47	X48	Y48	Z48	X49	Y49	Z49	X50	Y50	Z50	X51	Y51	Z51	X52	Y52	Z52	X53	Y53	Z53	

357	3.56	-703.4375	949.7680053710938	-119.1014022827148	-645.2264404296875	945.4268798828125	-228.1948547363281	-675.8423461914062	1022.169128417969	-169.7489318847656	-476.1866149902344	1174.557983398438	-80.18524169921875	-690.9647827148438	1126.9169921875	-169.0984039306641	-640.2084350585938	1354.108520507812	-143.0568389892578	-505.0076293945312	1272.370483398438	-89.83795928955078	-727.203369140625	1235.751953125	-87.28787231445312	-636.0673828125	1303.17138671875	-235.7626800537109	-519.2721557617188	1342.716796875	-270.0291748046875	-518.78271484375	1216.842651367188	-332.8102416992188	-522.8907470703125	1009.247741699219	-366.2175598144531	-615.7510986328125	1008.232849121094	-328.2447509765625	-469.0088806152344	816.041259765625	-312.0718688964844	-534.015625	790.3209228515625	-376.7445983886719	-510.0436096191406	931.0830688476562	-366.8775024414062	-478.7493591308594	657.5316772460938	-316.4725036621094	-514.351806640625	733.6697998046875	-369.8869934082031	-459.2399291992188	738.5038452148438	-335.5884094238281	-648.693603515625	1344.709228515625	15.19219493865967	-690.079345703125	1276.901611328125	58.48580169677734	-717.5390014648438	1008.088684082031	89.80082702636719	-752.9198608398438	994.6002197265625	34.88857269287109	-604.6268310546875	813.0205688476562	98.31025695800781	-692.1419067382812	784.7444458007812	100.8481979370117	-717.2102661132812	952.7597045898438	95.83681488037109	-597.20361328125	654.2507934570312	98.52021789550781	-597.4896240234375	721.5235595703125	124.5475540161133	-665.6011962890625	713.1245727539062	110.5303497314453	-614.203369140625	1510.680297851562	-48.94869232177734	-445.4859313964844	1553.092041015625	-149.6832580566406	-487.098876953125	1560.833862304688	-29.44753837585449	-576.2738037109375	1496.76171875	-203.3120269775391	-483.4125671386719	878.063232421875	-288.4214782714844	-676.8033447265625	848.0108032226562	36.42679214477539	-554.218505859375	891.2046508789062	32.9715576171875	-442.5246276855469	912.9501342773438	-181.0340423583984	-359.5478210449219	485.9316101074219	-193.5115203857422	-396.8394470214844	631.7699584960938	-236.7272796630859	-312.274658203125	47.7065544128418	-179.8760681152344	-333.96875	333.7875671386719	-195.2019958496094	-174.0928649902344	99.1866455078125	-48.10802459716797	-247.8046569824219	74.26748657226562	-45.62546539306641	-213.3812713623047	68.96490478515625	-144.2004241943359	-378.3053588867188	36.06119155883789	-142.1865844726562	-690.2926025390625	464.772216796875	-34.38836669921875	-823.9978637695312	59.56022262573242	-156.2885589599609	-705.9000244140625	322.7845458984375	-76.28070068359375	-626.5381469726562	41.11066436767578	-112.0600128173828	-670.081298828125	47.92778778076172	-174.3012084960938	-728.8610229492188	45.74381637573242	-96.45756530761719	-853.9908447265625	60.87224578857422	-220.9244995117188	-657.97802734375	717.159912109375	42.21343231201172	
358	3.57	-698.1220092773438	949.7651977539062	-118.6997833251953	-639.4356079101562	945.4525146484375	-227.5768737792969	-670.4190673828125	1022.019958496094	-169.2054595947266	-471.2362976074219	1174.267333984375	-78.64315032958984	-685.549560546875	1126.739624023438	-168.6222839355469	-634.9308471679688	1353.928100585938	-142.1848907470703	-499.9805297851562	1272.104248046875	-88.37941741943359	-722.22119140625	1235.547973632812	-86.9222412109375	-630.3780517578125	1303.028076171875	-234.8674621582031	-513.432861328125	1342.562866210938	-268.6319274902344	-512.7613525390625	1216.749633789062	-331.5145263671875	-517.1002807617188	1009.241638183594	-365.2819213867188	-610.046875	1008.240905761719	-327.5375061035156	-463.3447265625	815.8811645507812	-311.1838989257812	-528.5180053710938	790.213134765625	-375.6747131347656	-504.298095703125	930.97998046875	-365.9187927246094	-473.4176330566406	657.3837890625	-315.4508666992188	-509.0030822753906	733.5307006835938	-368.8458251953125	-453.8352661132812	738.2567138671875	-334.6059265136719	-644.20361328125	1344.34814453125	16.05820465087891	-685.780517578125	1276.455322265625	59.03007125854492	-713.3023071289062	1007.580017089844	89.88084411621094	-748.3898315429688	994.1419677734375	34.75841903686523	-600.4044799804688	812.4927368164062	98.73357391357422	-687.9183959960938	784.1973266601562	100.6741256713867	-712.9749145507812	952.2483520507812	95.838623046875	-592.916015625	653.7325439453125	98.75289916992188	-593.3908081054688	720.9671630859375	124.8821640014648	-661.1639404296875	712.557373046875	110.0768356323242	-609.2116088867188	1510.47119140625	-47.76915740966797	-440.4061279296875	1552.95361328125	-148.3181304931641	-482.160888671875	1560.726806640625	-28.14454078674316	-571.105224609375	1496.5234375	-202.0877380371094	-477.4590148925781	877.930419921875	-287.1084289550781	-672.4119262695312	848.1049194335938	36.9364013671875	-549.7451171875	890.8511962890625	34.1272087097168	-437.0797729492188	912.61328125	-179.4637756347656	-355.7611083984375	485.0097961425781	-191.8192443847656	-392.1272888183594	631.0059814453125	-235.0754699707031	-311.7066955566406	47.24441528320312	-179.1746368408203	-331.1607971191406	332.7179260253906	-193.5681915283203	-173.4661102294922	96.04753875732422	-46.44515228271484	-247.3352203369141	71.81330108642578	-44.36625289916992	-212.7289886474609	67.08895874023438	-142.899658203125	-377.8941345214844	35.82505416870117	-141.5971527099609	-687.569091796875	465.0217590332031	-33.91781234741211	-823.7630615234375	60.47035598754883	-156.0374298095703	-704.0945434570312	323.144287109375	-75.75319671630859	-626.5167236328125	41.10930633544922	-111.9856033325195	-670.0180053710938	48.12302398681641	-174.1516265869141	-728.7064819335938	45.89473724365234	-96.25962066650391	-853.756591796875	62.29498291015625	-220.6710052490234	-654.1275634765625	717.1207885742188	42.72518539428711	
359	3.58	-692.7056274414062	949.8346557617188	-118.307487487793	-633.5621337890625	945.5880737304688	-226.9885559082031	-664.8921508789062	1021.959655761719	-168.6697387695312	-466.1993408203125	1174.068603515625	-77.13686370849609	-680.0303344726562	1126.649291992188	-168.15576171875	-629.5574951171875	1353.836547851562	-141.3240356445312	-494.8581237792969	1271.926635742188	-86.95281219482422	-717.1309814453125	1235.4345703125	-86.56128692626953	-624.6101684570312	1302.971435546875	-233.9882202148438	-507.488525390625	1342.48291015625	-267.23974609375	-506.6421508789062	1216.727783203125	-330.2350769042969	-511.176513671875	1009.304382324219	-364.3370361328125	-604.2093505859375	1008.308959960938	-326.8338012695312	-457.5341796875	815.80126953125	-310.3446044921875	-522.8983764648438	790.159912109375	-374.6002807617188	-498.4342346191406	930.9439697265625	-364.9691162109375	-467.9564819335938	657.3123779296875	-314.3625793457031	-503.5605163574219	733.4352416992188	-367.76318359375	-448.263671875	738.08740234375	-333.6529235839844	-639.5993041992188	1344.077392578125	16.90399551391602	-681.3533325195312	1276.100463867188	59.56884765625	-708.905029296875	1007.164001464844	89.98727416992188	-743.7258911132812	993.7817993164062	34.67245101928711	-596.0839233398438	812.0087890625	99.09114837646484	-683.6034545898438	783.7506103515625	100.568000793457	-708.57861328125	951.8275756835938	95.86687469482422	-588.645751953125	653.2501220703125	98.94975280761719	-589.2190551757812	720.4498901367188	125.154670715332	-656.7135009765625	712.072998046875	109.7223663330078	-604.138427734375	1510.333374023438	-46.6059684753418	-435.2665710449219	1552.9248046875	-146.9519500732422	-477.1524963378906	1560.700927734375	-26.84860229492188	-565.8528442382812	1496.383911132812	-200.8865203857422	-471.4116516113281	877.92236328125	-285.8421630859375	-667.8259887695312	848.234130859375	37.44587326049805	-545.1467895507812	890.568359375	35.25276184082031	-431.56884765625	912.375732421875	-177.9333038330078	-351.8642578125	484.2178955078125	-190.1219482421875	-387.3092956542969	630.3378295898438	-233.4553680419922	-311.0023803710938	46.93925094604492	-178.63916015625	-328.1731567382812	331.8194885253906	-191.9353179931641	-172.8601531982422	92.81436920166016	-44.76148986816406	-246.8976135253906	69.34711456298828	-43.16402816772461	-212.0441589355469	65.25772857666016	-141.6237335205078	-377.4284057617188	35.84981918334961	-141.1753692626953	-684.6821899414062	465.3344116210938	-33.43111419677734	-823.5081176757812	61.48111343383789	-155.7304534912109	-702.1503295898438	323.5623779296875	-75.21097564697266	-626.4869384765625	41.11140060424805	-111.9162292480469	-669.9376831054688	48.34957885742188	-173.9927215576172	-728.5339965820312	46.06443786621094	-96.043701171875	-853.5046997070312	63.85518646240234	-220.3547515869141	-650.123291015625	717.1310424804688	43.21490859985352	
360	3.59	-687.2041625976562	949.9813232421875	-117.9103851318359	-627.63037109375	945.8359985351562	-226.4204406738281	-659.27587890625	1021.995727539062	-168.1296234130859	-461.0716857910156	1173.97412109375	-75.66648101806641	-674.4208374023438	1126.65771484375	-167.6810760498047	-624.095703125	1353.83984375	-140.4652862548828	-489.640869140625	1271.847290039062	-85.55867767333984	-711.9334716796875	1235.41943359375	-86.18556976318359	-618.7789306640625	1303.007568359375	-233.1177368164062	-501.460205078125	1342.48779296875	-265.8531494140625	-500.43994140625	1216.786987304688	-328.9696044921875	-505.1152954101562	1009.444885253906	-363.3685302734375	-598.2374877929688	1008.440307617188	-326.1145629882812	-451.586669921875	815.8050537109375	-309.5404052734375	-517.1417236328125	790.171630859375	-373.5246276855469	-492.4494018554688	930.983642578125	-364.018310546875	-462.3620300292969	657.3213500976562	-313.2181701660156	-498.00537109375	733.3951416015625	-366.6445617675781	-442.5219421386719	738.01123046875	-332.7231750488281	-634.871337890625	1343.911376953125	17.74089813232422	-676.7871704101562	1275.851928710938	60.11737442016602	-704.349853515625	1006.856872558594	90.12159729003906	-738.9273071289062	993.5338745117188	34.62952423095703	-591.6697998046875	811.5784912109375	99.39766693115234	-679.2086181640625	783.413818359375	100.5170288085938	-704.0308837890625	951.513671875	95.92620849609375	-584.3965454101562	652.8129272460938	99.11128234863281	-584.9931640625	719.9801635742188	125.3812561035156	-652.2760009765625	711.67578125	109.474494934082	-598.9850463867188	1510.27685546875	-45.4623908996582	-430.068603515625	1553.009765625	-145.5841522216797	-472.076416015625	1560.7607421875	-25.55607795715332	-560.5184326171875	1496.349975585938	-199.7083892822266	-465.2986755371094	878.0448608398438	-284.6259765625	-663.0440063476562	848.3804931640625	37.96991348266602	-540.4236450195312	890.3593139648438	36.34098434448242	-426.0086059570312	912.2469482421875	-176.4511260986328	-347.7936401367188	483.6025085449219	-188.3960113525391	-382.3597412109375	629.8159790039062	-231.8592681884766	-310.1464538574219	46.76359558105469	-178.2210845947266	-324.9319152832031	331.1239929199219	-190.2930145263672	-172.2035369873047	89.52521514892578	-43.09988403320312	-246.4264373779297	66.91342163085938	-42.02415466308594	-211.2810363769531	63.45205688476562	-140.3820343017578	-376.8624877929688	36.12138366699219	-140.8768615722656	-681.6126098632812	465.7100830078125	-32.92446517944336	-823.2279052734375	62.60573196411133	-155.3637237548828	-700.0543212890625	324.040771484375	-74.65261077880859	-626.4484252929688	41.11680603027344	-111.8499450683594	-669.8384399414062	48.61321640014648	-173.8209075927734	-728.3362426757812	46.25837326049805	-95.80354309082031	-853.2328491210938	65.56394195556641	-219.9697265625	-645.9502563476562	717.1943969726562	43.6892204284668	
